<svg xmlns="http://www.w3.org/2000/svg" xmlns:xlink="http://www.w3.org/1999/xlink" width="100" zoomAndPan="magnify" viewBox="0 0 75 74.999997" height="100" preserveAspectRatio="xMidYMid meet" version="1.0"><defs><clipPath id="15609e6085"><path d="M 0 37 L 28 37 L 28 53.765625 L 0 53.765625 Z M 0 37 " clip-rule="nonzero"/></clipPath><clipPath id="2a6e2456ac"><path d="M 47 37 L 75 37 L 75 53.765625 L 47 53.765625 Z M 47 37 " clip-rule="nonzero"/></clipPath></defs><path fill="#0c0c0c" d="M 59.066406 22.90625 C 59.066406 22.90625 50.726562 21.53125 48.457031 25.640625 C 46.191406 29.75 42.101562 30.449219 42.101562 30.449219 C 42.101562 30.449219 41.359375 28.945312 41.839844 27.980469 C 42.316406 27.015625 42.617188 25.390625 41.753906 23.953125 C 41.753906 23.953125 42.121094 28.460938 38.195312 28.796875 C 34.210938 28.527344 33.839844 24.019531 33.839844 24.019531 C 33.21875 25.46875 33.78125 27.089844 34.417969 28.046875 C 35.050781 29.003906 34.558594 30.511719 34.558594 30.511719 C 34.558594 30.511719 30.359375 29.886719 27.425781 25.816406 C 24.492188 21.75 16.390625 23.257812 16.390625 23.257812 C 23.34375 23.5625 22.972656 31.148438 22.972656 31.148438 C 30.867188 30.84375 30.394531 35.722656 30.394531 35.722656 C 33.457031 34.558594 36.664062 35.917969 37.269531 38.019531 C 37.871094 40.117188 38.925781 41.285156 39.222656 41.546875 C 39.480469 41.273438 40.34375 40.089844 40.605469 37.988281 C 40.867188 35.878906 43.847656 34.472656 47.09375 35.582031 C 47.09375 35.582031 45.84375 30.71875 53.765625 30.890625 C 53.765625 30.890625 52.167969 23.324219 59.066406 22.90625 Z M 59.066406 22.90625 " fill-opacity="1" fill-rule="nonzero"/><g clip-path="url(#15609e6085)"><path fill="#0c0c0c" d="M 27.777344 37.351562 C 27.777344 37.351562 22.058594 38.347656 21.40625 41.492188 C 20.753906 44.636719 18.226562 46.003906 18.226562 46.003906 C 18.226562 46.003906 17.441406 45.210938 17.558594 44.484375 C 17.679688 43.753906 17.546875 42.644531 16.695312 41.914062 C 16.695312 41.914062 17.839844 44.726562 15.34375 45.824219 C 12.691406 46.546875 11.542969 43.738281 11.542969 43.738281 C 11.429688 44.808594 12.121094 45.71875 12.730469 46.191406 C 13.335938 46.664062 13.316406 47.742188 13.316406 47.742188 C 13.316406 47.742188 10.453125 48.28125 7.71875 46.332031 C 4.988281 44.382812 0.00390625 47.175781 0.00390625 47.175781 C 4.601562 45.804688 5.882812 50.753906 5.882812 50.753906 C 10.976562 48.785156 11.652344 52.019531 11.652344 52.019531 C 13.414062 50.582031 15.777344 50.730469 16.597656 51.941406 C 17.410156 53.152344 18.335938 53.664062 18.585938 53.765625 C 18.695312 53.535156 19.023438 52.585938 18.769531 51.171875 C 18.515625 49.761719 20.175781 48.1875 22.519531 48.171875 C 22.519531 48.171875 20.71875 45.335938 25.929688 43.664062 C 25.929688 43.664062 23.359375 39.167969 27.777344 37.347656 Z M 27.777344 37.351562 " fill-opacity="1" fill-rule="nonzero"/></g><g clip-path="url(#2a6e2456ac)"><path fill="#0c0c0c" d="M 47.222656 37.351562 C 47.222656 37.351562 52.945312 38.347656 53.59375 41.492188 C 54.246094 44.636719 56.777344 46.003906 56.777344 46.003906 C 56.777344 46.003906 57.558594 45.210938 57.441406 44.484375 C 57.324219 43.753906 57.457031 42.644531 58.308594 41.914062 C 58.308594 41.914062 57.160156 44.726562 59.660156 45.824219 C 62.3125 46.546875 63.457031 43.738281 63.457031 43.738281 C 63.574219 44.808594 62.878906 45.71875 62.273438 46.191406 C 61.664062 46.664062 61.683594 47.742188 61.683594 47.742188 C 61.683594 47.742188 64.550781 48.28125 67.28125 46.332031 C 70.015625 44.382812 75 47.175781 75 47.175781 C 70.398438 45.804688 69.117188 50.753906 69.117188 50.753906 C 64.023438 48.785156 63.351562 52.019531 63.351562 52.019531 C 61.585938 50.582031 59.222656 50.730469 58.40625 51.941406 C 57.589844 53.152344 56.667969 53.664062 56.417969 53.765625 C 56.304688 53.535156 55.980469 52.585938 56.234375 51.171875 C 56.488281 49.761719 54.824219 48.1875 52.480469 48.171875 C 52.480469 48.171875 54.285156 45.335938 49.070312 43.664062 C 49.070312 43.664062 51.640625 39.167969 47.226562 37.347656 Z M 47.222656 37.351562 " fill-opacity="1" fill-rule="nonzero"/></g></svg>