<svg xmlns="http://www.w3.org/2000/svg" xmlns:xlink="http://www.w3.org/1999/xlink" width="150" zoomAndPan="magnify" viewBox="0 0 112.5 67.499998" height="90" preserveAspectRatio="xMidYMid meet" version="1.0"><defs><clipPath id="aa962ff266"><path d="M 0.164062 2.859375 L 111 2.859375 L 111 62 L 0.164062 62 Z M 0.164062 2.859375 " clip-rule="nonzero"/></clipPath></defs><path fill="#fbdc08" d="M 37.125 30.429688 C 33.621094 30.714844 30.886719 33.527344 30.003906 37.742188 C 29.230469 41.4375 31.421875 45.972656 34.597656 47.246094 C 38.199219 48.6875 43.222656 47.21875 45.28125 44.125 C 47.402344 40.941406 46.460938 35.070312 43.410156 32.457031 C 41.890625 31.15625 39.414062 30.238281 37.777344 30.375 C 37.726562 30.378906 37.433594 30.402344 37.125 30.429688 M 62.613281 30.761719 C 59.929688 31.085938 57.28125 34.183594 56.503906 37.90625 C 56.449219 38.152344 56.351562 38.59375 56.285156 38.886719 C 55.617188 41.800781 57.035156 45.488281 59.4375 47.082031 C 62.390625 49.042969 66.324219 48.167969 68.578125 45.042969 C 70.28125 42.679688 70.144531 37.957031 68.25 34.039062 C 67.152344 31.769531 64.933594 30.476562 62.613281 30.761719 M 41.816406 36.378906 C 42.929688 36.953125 43.457031 38.816406 43.058594 40.742188 C 42.453125 43.640625 39.585938 43.65625 39.085938 40.765625 C 38.578125 37.867188 40.070312 35.476562 41.816406 36.378906 M 61.820312 36.390625 C 62.921875 36.90625 63.511719 38.316406 63.523438 40.484375 C 63.527344 41.554688 63.460938 41.875 63.109375 42.425781 C 62.015625 44.140625 59.855469 43.050781 59.652344 40.679688 C 59.40625 37.875 60.476562 35.765625 61.820312 36.390625 M 51.25 45.945312 C 50.472656 46.074219 49.820312 46.375 49.710938 46.660156 C 49.316406 47.707031 53.941406 48.03125 54.414062 46.988281 C 54.710938 46.335938 52.773438 45.695312 51.25 45.945312 " fill-opacity="1" fill-rule="evenodd"/><g clip-path="url(#aa962ff266)"><path fill="#040404" d="M 19.707031 2.992188 C 17.417969 3.582031 16.089844 5.632812 14.632812 10.835938 C 13.511719 14.835938 13.175781 17.78125 13.484375 20.921875 C 13.625 22.332031 13.609375 24.484375 13.457031 25.800781 C 13.375 26.476562 13.28125 27.257812 13.25 27.535156 C 13.011719 29.550781 13.308594 31.160156 14.355469 33.5625 C 15.089844 35.246094 15.097656 35.816406 14.402344 38.015625 C 13.464844 40.992188 13.25 43.257812 13.765625 44.761719 C 13.871094 45.066406 13.851562 45.160156 13.6875 45.164062 C 13.363281 45.171875 12.125 45.964844 11.574219 46.519531 L 11.148438 46.949219 L 10.738281 46.832031 C 10.113281 46.652344 8.523438 46.65625 7.804688 46.832031 C 5.800781 47.328125 4.242188 48.5 3.46875 50.089844 L 3.179688 50.6875 L 2.640625 50.957031 C 1.097656 51.730469 0.242188 53.394531 0.234375 55.644531 C 0.230469 57.796875 1.402344 59.457031 2.929688 59.457031 C 3.109375 59.457031 3.144531 59.484375 3.265625 59.695312 C 4.136719 61.257812 6.835938 61.90625 9.015625 61.082031 C 9.601562 60.859375 10.5625 60.347656 10.6875 60.183594 C 10.773438 60.078125 10.921875 60.085938 11.011719 60.199219 C 12.441406 62.011719 15.535156 62.433594 17.816406 61.128906 C 18.046875 60.996094 18.292969 60.855469 18.359375 60.820312 C 18.425781 60.78125 18.683594 60.566406 18.925781 60.335938 L 19.371094 59.921875 L 19.734375 60.210938 C 20.410156 60.753906 20.96875 60.984375 21.773438 61.050781 C 23.925781 61.230469 25.425781 59.679688 25.589844 57.101562 L 25.625 56.570312 L 29.085938 56.597656 C 33.980469 56.636719 43.183594 56.632812 57.671875 56.585938 C 79.105469 56.511719 81.378906 56.503906 82.082031 56.527344 L 82.761719 56.550781 L 82.824219 56.742188 C 83.75 59.5625 87.585938 60.855469 89.839844 59.113281 L 90.128906 58.890625 L 90.539062 59.234375 C 92.234375 60.667969 95.113281 60.78125 96.707031 59.480469 C 97 59.238281 96.917969 59.207031 97.488281 59.785156 C 99.332031 61.644531 102.195312 61.664062 104.15625 59.828125 L 104.433594 59.566406 L 104.613281 59.703125 C 106.429688 61.070312 109.421875 59.785156 110.316406 57.253906 C 111.78125 53.117188 108.558594 48.527344 103.480469 47.519531 C 103.011719 47.425781 102.710938 47.402344 101.988281 47.410156 L 101.082031 47.421875 L 100.703125 47.164062 C 97.851562 45.230469 93.332031 45.003906 90.292969 46.640625 C 89.964844 46.816406 89.660156 46.992188 89.621094 47.03125 C 89.582031 47.066406 89.449219 47.167969 89.328125 47.253906 C 89.203125 47.335938 88.925781 47.582031 88.710938 47.796875 L 88.320312 48.1875 L 88.046875 48.105469 C 86.871094 47.75 85.085938 48.207031 83.84375 49.183594 C 83.34375 49.574219 83.320312 49.585938 83.277344 49.464844 C 83.03125 48.800781 82.871094 48.410156 82.65625 47.9375 C 81.582031 45.601562 81.554688 43.972656 82.542969 41.800781 C 83.773438 39.105469 83.867188 38.414062 83.402344 35.441406 C 82.792969 31.511719 83.625 28.386719 86.941406 22.183594 C 87.246094 21.613281 87.601562 20.945312 87.734375 20.699219 C 87.867188 20.453125 88.082031 20.0625 88.210938 19.832031 C 90.597656 15.585938 92.082031 12.570312 92.761719 10.601562 C 94.097656 6.734375 92.972656 5.339844 90.011719 7.199219 C 87.855469 8.546875 84.578125 11.269531 81.007812 14.671875 C 77.496094 18.015625 75.667969 19.414062 73.164062 20.671875 C 72.53125 20.988281 71.636719 21.382812 71.097656 21.578125 C 69.292969 22.242188 67.941406 22.605469 65.976562 22.96875 C 65.449219 23.0625 65.34375 23.066406 64.664062 22.996094 C 64.257812 22.953125 63.359375 22.867188 62.667969 22.800781 C 59.726562 22.523438 57.453125 22.199219 54.851562 21.675781 C 54.558594 21.621094 53.855469 21.480469 53.289062 21.371094 C 52.71875 21.261719 52.003906 21.125 51.695312 21.0625 C 46.734375 20.082031 44.242188 19.957031 39.738281 20.476562 C 35.777344 20.933594 35.140625 20.667969 32.589844 17.503906 C 31.394531 16.019531 31.292969 15.910156 29.476562 14.085938 C 27.589844 12.191406 27.566406 12.15625 27.074219 10.46875 C 26.90625 9.898438 26.910156 9.910156 26.511719 8.984375 C 26.222656 8.3125 25.628906 7.132812 25.503906 6.988281 C 25.464844 6.941406 25.429688 6.882812 25.429688 6.863281 C 25.429688 6.792969 24.683594 5.679688 24.609375 5.632812 C 24.566406 5.609375 24.535156 5.5625 24.535156 5.53125 C 24.535156 5.234375 22.835938 3.769531 22.078125 3.414062 C 21.324219 3.0625 20.210938 2.863281 19.707031 2.992188 M 39.5625 30.527344 C 42.203125 31.101562 44.148438 32.605469 45.355469 35.003906 C 46.632812 37.542969 46.800781 41.269531 45.738281 43.398438 C 44.394531 46.085938 41.363281 47.765625 37.851562 47.765625 C 34.550781 47.765625 32.808594 46.828125 31.234375 44.210938 C 28.925781 40.375 29.519531 35.664062 32.710938 32.46875 C 33.902344 31.277344 34.980469 30.742188 36.875 30.402344 C 37.273438 30.332031 39.042969 30.414062 39.5625 30.527344 M 63.980469 30.789062 C 65.945312 31.078125 67.320312 32.089844 68.234375 33.925781 C 70.125 37.722656 70.316406 42.789062 68.648438 44.996094 C 64.53125 50.449219 57.304688 48.582031 56.246094 41.792969 C 55.65625 37.992188 57.730469 33.164062 60.730469 31.363281 C 61.691406 30.789062 62.730469 30.605469 63.980469 30.789062 M 40.734375 36.257812 C 38.6875 36.660156 38.363281 41.847656 40.328125 42.765625 C 41.050781 43.101562 41.734375 42.894531 42.355469 42.148438 C 43.375 40.929688 43.410156 37.964844 42.417969 36.863281 C 41.988281 36.386719 41.3125 36.144531 40.734375 36.257812 M 60.84375 36.445312 C 59.761719 36.941406 59.234375 40.347656 59.996094 41.914062 C 60.832031 43.625 62.636719 43.652344 63.308594 41.96875 L 63.476562 41.550781 L 63.46875 40.34375 C 63.445312 37.582031 62.246094 35.804688 60.84375 36.445312 M 53.300781 46.035156 C 55.375 46.542969 54.625 47.667969 52.226562 47.648438 C 49.546875 47.628906 48.667969 46.4375 51 45.984375 C 51.886719 45.8125 52.433594 45.824219 53.300781 46.035156 " fill-opacity="1" fill-rule="evenodd"/></g><path fill="#5c4f05" d="M 37.140625 30.40625 C 37.238281 30.421875 37.402344 30.421875 37.503906 30.40625 C 37.601562 30.394531 37.519531 30.386719 37.320312 30.386719 C 37.121094 30.386719 37.039062 30.394531 37.140625 30.40625 M 38.3125 30.40625 C 38.414062 30.421875 38.5625 30.421875 38.648438 30.40625 C 38.730469 30.394531 38.648438 30.382812 38.464844 30.386719 C 38.28125 30.386719 38.210938 30.394531 38.3125 30.40625 M 65.960938 31.457031 C 65.960938 31.472656 66.039062 31.523438 66.128906 31.574219 C 66.222656 31.621094 66.296875 31.648438 66.296875 31.632812 C 66.296875 31.617188 66.222656 31.5625 66.128906 31.515625 C 66.039062 31.46875 65.960938 31.441406 65.960938 31.457031 M 32.683594 32.484375 L 32.210938 32.972656 L 32.699219 32.5 C 33.15625 32.058594 33.214844 31.992188 33.175781 31.992188 C 33.164062 31.992188 32.945312 32.214844 32.683594 32.484375 M 67.050781 32.273438 C 67.203125 32.425781 67.339844 32.554688 67.355469 32.554688 C 67.367188 32.554688 67.257812 32.425781 67.105469 32.273438 C 66.957031 32.117188 66.820312 31.992188 66.804688 31.992188 C 66.789062 31.992188 66.898438 32.117188 67.050781 32.273438 M 59.34375 32.457031 L 59.011719 32.804688 L 59.359375 32.472656 C 59.550781 32.285156 59.710938 32.128906 59.710938 32.121094 C 59.710938 32.078125 59.652344 32.128906 59.34375 32.457031 M 43.628906 32.628906 C 43.628906 32.636719 43.710938 32.71875 43.8125 32.808594 L 43.992188 32.972656 L 43.828125 32.792969 C 43.675781 32.621094 43.628906 32.582031 43.628906 32.628906 M 44.492188 33.636719 C 44.578125 33.75 44.660156 33.84375 44.671875 33.84375 C 44.710938 33.84375 44.46875 33.515625 44.398438 33.46875 C 44.363281 33.449219 44.40625 33.523438 44.492188 33.636719 M 61.257812 36.292969 C 61.328125 36.304688 61.429688 36.304688 61.480469 36.292969 C 61.535156 36.277344 61.480469 36.265625 61.355469 36.265625 C 61.234375 36.265625 61.1875 36.277344 61.257812 36.292969 M 42.234375 36.664062 C 42.234375 36.671875 42.316406 36.753906 42.414062 36.84375 L 42.597656 37.007812 L 42.433594 36.828125 C 42.28125 36.65625 42.234375 36.621094 42.234375 36.664062 M 62.441406 36.898438 C 62.769531 37.273438 62.820312 37.320312 62.683594 37.121094 C 62.617188 37.027344 62.484375 36.878906 62.382812 36.785156 C 62.246094 36.660156 62.261719 36.691406 62.441406 36.898438 M 59.910156 37.742188 C 59.886719 37.824219 59.882812 37.902344 59.894531 37.914062 C 59.90625 37.929688 59.9375 37.871094 59.957031 37.789062 C 59.976562 37.707031 59.984375 37.628906 59.96875 37.617188 C 59.957031 37.605469 59.929688 37.660156 59.910156 37.742188 M 39.136719 38.269531 C 39.113281 38.367188 39.109375 38.457031 39.121094 38.472656 C 39.136719 38.488281 39.164062 38.417969 39.183594 38.320312 C 39.230469 38.085938 39.183594 38.039062 39.136719 38.269531 M 46.324219 38.269531 C 46.324219 38.378906 46.335938 38.421875 46.347656 38.367188 C 46.363281 38.316406 46.363281 38.226562 46.347656 38.171875 C 46.335938 38.117188 46.324219 38.164062 46.324219 38.269531 M 46.378906 38.886719 C 46.378906 38.996094 46.390625 39.039062 46.402344 38.984375 C 46.417969 38.929688 46.417969 38.84375 46.402344 38.789062 C 46.390625 38.734375 46.378906 38.777344 46.378906 38.886719 M 43.148438 39.476562 C 43.148438 39.785156 43.15625 39.902344 43.167969 39.738281 C 43.179688 39.578125 43.179688 39.324219 43.167969 39.179688 C 43.15625 39.035156 43.148438 39.167969 43.148438 39.476562 M 59.667969 39.109375 C 59.667969 39.21875 59.675781 39.261719 59.691406 39.210938 C 59.707031 39.15625 59.707031 39.066406 59.691406 39.011719 C 59.675781 38.960938 59.667969 39.003906 59.667969 39.109375 M 29.800781 39.28125 C 29.800781 39.417969 29.808594 39.476562 29.824219 39.40625 C 29.835938 39.335938 29.835938 39.222656 29.824219 39.152344 C 29.808594 39.082031 29.800781 39.140625 29.800781 39.28125 M 69.722656 39.671875 C 69.722656 39.933594 69.730469 40.042969 69.742188 39.910156 C 69.753906 39.777344 69.753906 39.566406 69.742188 39.433594 C 69.730469 39.300781 69.722656 39.410156 69.722656 39.671875 M 63.464844 39.671875 C 63.464844 39.839844 63.476562 39.910156 63.488281 39.824219 C 63.503906 39.742188 63.503906 39.601562 63.488281 39.515625 C 63.476562 39.433594 63.464844 39.503906 63.464844 39.671875 M 56.148438 39.617188 C 56.148438 39.722656 56.160156 39.769531 56.175781 39.714844 C 56.1875 39.660156 56.1875 39.570312 56.175781 39.515625 C 56.160156 39.464844 56.148438 39.507812 56.148438 39.617188 M 59.613281 40.121094 C 59.613281 40.257812 59.625 40.316406 59.636719 40.246094 C 59.648438 40.175781 59.648438 40.0625 59.636719 39.992188 C 59.625 39.925781 59.613281 39.980469 59.613281 40.121094 M 63.527344 40.597656 C 63.527344 40.90625 63.535156 41.023438 63.546875 40.859375 C 63.558594 40.699219 63.558594 40.445312 63.546875 40.300781 C 63.535156 40.15625 63.527344 40.289062 63.527344 40.597656 M 69.78125 40.875 C 69.78125 41.246094 69.789062 41.390625 69.800781 41.195312 C 69.8125 41.003906 69.8125 40.699219 69.800781 40.523438 C 69.789062 40.347656 69.78125 40.507812 69.78125 40.875 M 46.378906 40.679688 C 46.378906 40.789062 46.390625 40.832031 46.402344 40.777344 C 46.417969 40.726562 46.417969 40.636719 46.402344 40.582031 C 46.390625 40.527344 46.378906 40.574219 46.378906 40.679688 M 56.152344 40.90625 C 56.152344 41.105469 56.164062 41.1875 56.175781 41.085938 C 56.1875 40.988281 56.1875 40.824219 56.175781 40.722656 C 56.164062 40.621094 56.152344 40.703125 56.152344 40.90625 M 42.9375 41.050781 C 42.914062 41.132812 42.910156 41.210938 42.921875 41.222656 C 42.933594 41.234375 42.964844 41.179688 42.984375 41.097656 C 43.003906 41.015625 43.011719 40.9375 42.996094 40.921875 C 42.984375 40.910156 42.957031 40.96875 42.9375 41.050781 M 46.324219 41.242188 C 46.324219 41.347656 46.335938 41.394531 46.347656 41.339844 C 46.363281 41.285156 46.363281 41.195312 46.347656 41.144531 C 46.335938 41.089844 46.324219 41.132812 46.324219 41.242188 M 69.714844 41.746094 C 69.714844 41.851562 69.726562 41.898438 69.742188 41.84375 C 69.753906 41.789062 69.753906 41.703125 69.742188 41.648438 C 69.726562 41.59375 69.714844 41.636719 69.714844 41.746094 M 39.550781 42.128906 C 39.578125 42.183594 39.648438 42.265625 39.699219 42.3125 C 39.761719 42.359375 39.746094 42.320312 39.664062 42.207031 C 39.519531 42.007812 39.464844 41.96875 39.550781 42.128906 M 41.980469 42.535156 C 41.960938 42.566406 41.863281 42.644531 41.765625 42.703125 C 41.671875 42.761719 41.621094 42.808594 41.660156 42.808594 C 41.730469 42.808594 42.125 42.480469 42.054688 42.476562 C 42.035156 42.476562 42 42.5 41.980469 42.535156 M 61.621094 43.296875 C 61.675781 43.3125 61.761719 43.3125 61.816406 43.296875 C 61.871094 43.285156 61.828125 43.273438 61.71875 43.273438 C 61.613281 43.273438 61.566406 43.285156 61.621094 43.296875 M 30.84375 43.539062 C 30.90625 43.664062 30.972656 43.761719 30.984375 43.761719 C 31 43.761719 30.964844 43.664062 30.898438 43.539062 C 30.835938 43.414062 30.773438 43.316406 30.757812 43.316406 C 30.742188 43.316406 30.78125 43.414062 30.84375 43.539062 M 68.640625 44.941406 C 68.578125 45.03125 68.535156 45.109375 68.550781 45.109375 C 68.566406 45.109375 68.632812 45.03125 68.699219 44.941406 C 68.761719 44.847656 68.804688 44.773438 68.789062 44.773438 C 68.773438 44.773438 68.707031 44.847656 68.640625 44.941406 M 32.433594 45.835938 C 32.648438 46.054688 32.835938 46.230469 32.851562 46.230469 C 32.867188 46.230469 32.703125 46.054688 32.492188 45.835938 C 32.277344 45.621094 32.089844 45.445312 32.074219 45.445312 C 32.058594 45.445312 32.222656 45.621094 32.433594 45.835938 M 67.773438 45.964844 L 67.386719 46.371094 L 67.789062 45.980469 C 68.167969 45.617188 68.222656 45.558594 68.179688 45.558594 C 68.171875 45.558594 67.988281 45.738281 67.773438 45.964844 M 43.574219 45.898438 C 43.378906 46.070312 43.378906 46.070312 43.558594 45.953125 C 43.65625 45.886719 43.753906 45.808594 43.769531 45.777344 C 43.824219 45.691406 43.78125 45.71875 43.574219 45.898438 M 58.285156 46.171875 C 58.53125 46.421875 58.742188 46.621094 58.757812 46.621094 C 58.773438 46.621094 58.585938 46.421875 58.339844 46.171875 C 58.097656 45.925781 57.882812 45.726562 57.867188 45.726562 C 57.855469 45.726562 58.042969 45.925781 58.285156 46.171875 M 51.878906 45.875 C 51.949219 45.890625 52.0625 45.890625 52.128906 45.875 C 52.199219 45.863281 52.140625 45.851562 52.003906 45.851562 C 51.867188 45.851562 51.808594 45.863281 51.878906 45.875 M 52.578125 45.933594 C 52.628906 45.945312 52.71875 45.945312 52.773438 45.933594 C 52.824219 45.917969 52.78125 45.90625 52.675781 45.90625 C 52.566406 45.90625 52.523438 45.917969 52.578125 45.933594 M 49.84375 46.429688 L 49.6875 46.574219 L 49.867188 46.445312 C 49.96875 46.378906 50.050781 46.3125 50.050781 46.304688 C 50.050781 46.257812 49.988281 46.296875 49.84375 46.429688 M 52.101562 47.671875 C 52.199219 47.683594 52.375 47.683594 52.492188 47.671875 C 52.605469 47.660156 52.527344 47.648438 52.3125 47.648438 C 52.097656 47.648438 52 47.660156 52.101562 47.671875 M 36.328125 47.726562 C 36.382812 47.738281 36.472656 47.738281 36.523438 47.726562 C 36.578125 47.710938 36.535156 47.699219 36.425781 47.699219 C 36.320312 47.699219 36.277344 47.710938 36.328125 47.726562 M 39.148438 47.726562 C 39.21875 47.738281 39.320312 47.738281 39.375 47.726562 C 39.425781 47.710938 39.371094 47.699219 39.246094 47.699219 C 39.125 47.703125 39.082031 47.714844 39.148438 47.726562 M 36.945312 47.78125 C 36.996094 47.796875 37.085938 47.796875 37.140625 47.78125 C 37.191406 47.765625 37.148438 47.753906 37.042969 47.753906 C 36.933594 47.753906 36.890625 47.765625 36.945312 47.78125 M 38.5625 47.78125 C 38.617188 47.796875 38.703125 47.796875 38.757812 47.78125 C 38.8125 47.765625 38.769531 47.753906 38.660156 47.753906 C 38.554688 47.753906 38.507812 47.765625 38.5625 47.78125 M 62.402344 48.175781 C 62.609375 48.1875 62.949219 48.1875 63.15625 48.175781 C 63.363281 48.167969 63.195312 48.15625 62.78125 48.15625 C 62.367188 48.15625 62.195312 48.167969 62.402344 48.175781 " fill-opacity="1" fill-rule="evenodd"/></svg>